<svg width="23" height="22" viewBox="0 0 23 22" fill="none" xmlns="http://www.w3.org/2000/svg">
<g id="google 1" clip-path="url(#clip0_1735_46828)">
<path id="Vector" d="M21.6676 9.08783L12.694 9.0874C12.2978 9.0874 11.9766 9.40855 11.9766 9.80481V12.6715C11.9766 13.0676 12.2978 13.3889 12.694 13.3889H17.7474C17.194 14.8249 16.1612 16.0276 14.8435 16.7917L16.9983 20.5218C20.4548 18.5228 22.4983 15.0153 22.4983 11.0889C22.4983 10.5298 22.4571 10.1302 22.3747 9.68016C22.312 9.33825 22.0152 9.08783 21.6676 9.08783Z" fill="#167EE6"/>
<path id="Vector_2" d="M11.5058 17.6949C9.03275 17.6949 6.87383 16.3437 5.71432 14.3442L1.98438 16.4941C3.88252 19.7839 7.43836 21.9993 11.5058 21.9993C13.5011 21.9993 15.3839 21.462 17.0058 20.5258V20.5207L14.851 16.7905C13.8654 17.3622 12.7248 17.6949 11.5058 17.6949Z" fill="#12B347"/>
<path id="Vector_3" d="M17 20.5261V20.521L14.8452 16.7909C13.8596 17.3625 12.7192 17.6953 11.5 17.6953V21.9996C13.4953 21.9996 15.3782 21.4624 17 20.5261Z" fill="#0F993E"/>
<path id="Vector_4" d="M4.80435 10.9998C4.80435 9.78079 5.13701 8.64035 5.70854 7.65478L1.9786 5.50488C1.0372 7.12167 0.5 8.99932 0.5 10.9998C0.5 13.0002 1.0372 14.8779 1.9786 16.4947L5.70854 14.3448C5.13701 13.3592 4.80435 12.2187 4.80435 10.9998Z" fill="#FFD500"/>
<path id="Vector_5" d="M11.5058 4.30435C13.1184 4.30435 14.5997 4.87738 15.7568 5.83056C16.0422 6.06568 16.4571 6.04871 16.7185 5.78725L18.7497 3.75611C19.0463 3.45946 19.0252 2.97387 18.7083 2.69895C16.7698 1.0172 14.2475 0 11.5058 0C7.43836 0 3.88252 2.21534 1.98438 5.50511L5.71432 7.65501C6.87383 5.65555 9.03275 4.30435 11.5058 4.30435Z" fill="#FF4B26"/>
<path id="Vector_6" d="M15.751 5.83056C16.0364 6.06568 16.4513 6.04871 16.7128 5.78725L18.7439 3.75611C19.0405 3.45946 19.0194 2.97387 18.7025 2.69895C16.764 1.01716 14.2417 0 11.5 0V4.30435C13.1126 4.30435 14.594 4.87738 15.751 5.83056Z" fill="#D93F21"/>
</g>
<defs>
<clipPath id="clip0_1735_46828">
<rect width="22" height="22" fill="white" transform="translate(0.5)"/>
</clipPath>
</defs>
</svg>
