<svg width="13" height="13" viewBox="0 0 13 13" fill="none" xmlns="http://www.w3.org/2000/svg">
<g clip-path="url(#clip0_1798_22553)">
<path d="M6.50012 8.90918C6.13668 8.90918 5.83203 9.21383 5.83203 9.57727C5.83203 9.94071 6.13668 10.2454 6.50012 10.2454C6.8502 10.2454 7.16821 9.94071 7.15217 9.5933C7.16821 9.21116 6.86623 8.90918 6.50012 8.90918Z" fill="#B5120D"/>
<path d="M12.6837 11.2769C13.1032 10.5527 13.1059 9.68953 12.689 8.968L8.5041 1.72058C8.08989 0.991027 7.34163 0.558105 6.50251 0.558105C5.66339 0.558105 4.91513 0.993699 4.50092 1.71791L0.310674 8.97334C-0.106213 9.70289 -0.103541 10.5714 0.318691 11.2956C0.735577 12.0118 1.48116 12.4421 2.31494 12.4421H10.6741C11.5105 12.4421 12.2614 12.0065 12.6837 11.2769ZM11.7751 10.7531C11.5426 11.154 11.131 11.3918 10.6714 11.3918H2.31226C1.85796 11.3918 1.4491 11.1593 1.22195 10.7665C0.992123 10.3683 0.989451 9.89263 1.21927 9.49178L5.40952 2.23901C5.63667 1.84083 6.04287 1.60567 6.50251 1.60567C6.95948 1.60567 7.36835 1.84351 7.5955 2.24169L11.7831 9.49445C12.0076 9.88461 12.0049 10.3549 11.7751 10.7531Z" fill="#B5120D"/>
<path d="M6.33608 4.21906C6.01807 4.30992 5.82031 4.59853 5.82031 4.94861C5.83635 5.15972 5.84971 5.37351 5.86574 5.58463C5.91117 6.38901 5.9566 7.17735 6.00203 7.98173C6.01807 8.25431 6.22918 8.45206 6.50176 8.45206C6.77434 8.45206 6.98813 8.24095 7.00149 7.96569C7.00149 7.80001 7.00149 7.64768 7.01753 7.47932C7.04692 6.96356 7.07899 6.4478 7.10839 5.93203C7.12442 5.59799 7.15382 5.26395 7.16985 4.9299C7.16985 4.80965 7.15382 4.70275 7.10839 4.59586C6.9721 4.29655 6.65409 4.14423 6.33608 4.21906Z" fill="#B5120D"/>
</g>
<defs>
<clipPath id="clip0_1798_22553">
<rect width="13" height="13" fill="white"/>
</clipPath>
</defs>
</svg>
